# xmcd
#
# Track frame offsets:
#	150
#	25449
#	49059
#	72952
#	99599
#	115401
#	147037
#	170731
#	196830
#	226150
#	265939
#	298715
#
# Disc length: 4193 seconds
#
# Revision: 0
# Processed by: cddbd v1.5.1PL2 Copyright (c) Steve Scherf et al.
# Submitted via: dBpowerAMP V4.0
#
DISCID=af105f0c
DTITLE=onemeet - onemeet
DYEAR=2006
DGENRE=Pop
TTITLE0=onemeet1
TTITLE1=onemeet2
TTITLE2=onemeet3
TTITLE3=onemeet4
TTITLE4=onemeet5
TTITLE5=onemeet6
TTITLE6=onemeet7
TTITLE7=onemeet8
TTITLE8=onemeet9
TTITLE9=onemeet10
TTITLE10=onemeet11
TTITLE11=onemeet12
EXTD=
EXTT0=
EXTT1=
EXTT2=
EXTT3=
EXTT4=
EXTT5=
EXTT6=
EXTT7=
EXTT8=
EXTT9=
EXTT10=
EXTT11=
PLAYORDER=
